<svg width="51" height="50" viewBox="0 0 51 50" xmlns="http://www.w3.org/2000/svg" xmlns:xlink="http://www.w3.org/1999/xlink"><defs><path id="a" d="M0 0h57v50H0z"/></defs><g transform="translate(-2)" fill="none" fill-rule="evenodd"><mask id="b" fill="inherit"><use xlink:href="#a"/></mask><path d="M16.22 17l11.28 9.059L38.78 17H16.22zm9.194 9.604L15.5 33h24l-9.914-6.396-2.086 2.021-2.086-2.021zM15.5 31.965l8.737-6.502L15.5 17v14.965zm24 0V17l-8.738 8.464 8.738 6.501zM27.5 3c-12.15 0-22 9.85-22 22s9.85 22 22 22 22-9.85 22-22-9.85-22-22-22zm0-3c-13.807 0-25 11.193-25 25s11.193 25 25 25c13.806 0 25-11.193 25-25S41.306 0 27.5 0z" fill="#000" mask="url(#b)"/></g></svg>