<svg width="25" height="26" viewBox="0 0 25 26" fill="none" xmlns="http://www.w3.org/2000/svg"><g clip-path="url(#clip0)"><path d="M11.07.657C5.433 1.288.854 5.78.112 11.423c-1.05 7.998 5.466 14.801 13.36 14.2 2.903-.22 5.62-1.523 7.75-3.515l.183-.171a.524.524 0 00.026-.739l-.711-.765a.52.52 0 00-.736-.025l-.381.356c-2.369 2.216-5.62 3.213-8.9 2.653-4.65-.795-8.224-4.755-8.587-9.473-.48-6.238 4.536-11.452 10.694-11.272 5.678.165 10.107 5.027 10.107 10.726v.766a2.088 2.088 0 01-2.29 2.08c-1.083-.106-1.876-1.082-1.876-2.173v-4.61a.522.522 0 00-.521-.523h-1.042a.518.518 0 00-.47.304A5.7 5.7 0 0012.5 7.37c-3.16 0-5.73 2.579-5.73 5.749 0 3.17 2.57 5.748 5.73 5.748a5.722 5.722 0 004.772-2.574c.774 1.297 2.21 2.152 3.847 2.042 2.212-.149 3.88-2.094 3.88-4.319v-.897C25 5.73 18.6-.186 11.072.657zm1.43 16.12a3.656 3.656 0 01-3.646-3.658A3.656 3.656 0 0112.5 9.46a3.656 3.656 0 013.646 3.658 3.656 3.656 0 01-3.646 3.658z" fill="#fff"/></g><defs><clipPath id="clip0"><path fill="#fff" d="M0 .577h25V25.66H0z"/></clipPath></defs></svg>