<svg width="100" height="100" viewBox="0 0 100 100" xmlns="http://www.w3.org/2000/svg"><g fill="none" fill-rule="evenodd"><path d="M100 50c0 27.614-22.386 50-49.999 50C22.386 100 0 77.615 0 50S22.386 0 50.001 0C77.614 0 100 22.386 100 50" fill="#FFF"/><g fill="#00AEEF"><path d="M50 23c-7.876 0-8.863.033-11.956.174-3.086.141-5.196.632-7.04 1.349-1.906.74-3.524 1.732-5.136 3.345-1.612 1.612-2.604 3.229-3.345 5.136-.717 1.845-1.208 3.953-1.348 7.04C21.033 43.136 21 44.123 21 52c0 7.875.033 8.862.175 11.956.14 3.087.631 5.195 1.348 7.04.74 1.907 1.733 3.524 3.345 5.136 1.612 1.613 3.23 2.605 5.135 3.345 1.845.717 3.955 1.207 7.041 1.347 3.093.142 4.08.175 11.956.175 7.876 0 8.864-.033 11.957-.175 3.086-.14 5.194-.63 7.039-1.347 1.907-.74 3.524-1.732 5.137-3.345 1.612-1.612 2.603-3.23 3.344-5.137.717-1.844 1.207-3.952 1.348-7.04.14-3.093.175-4.08.175-11.955 0-7.876-.034-8.864-.175-11.958-.141-3.086-.63-5.194-1.348-7.039-.74-1.907-1.732-3.524-3.344-5.136-1.613-1.613-3.23-2.606-5.137-3.345-1.845-.717-3.953-1.208-7.04-1.349C58.865 23.033 57.877 23 50 23m0 5.225c7.743 0 8.66.03 11.718.168 2.828.13 4.363.603 5.385 1 1.354.526 2.319 1.155 3.335 2.17 1.015 1.014 1.643 1.98 2.17 3.333.395 1.023.868 2.558.997 5.386.14 3.057.169 3.975.169 11.719 0 7.743-.029 8.66-.169 11.718-.129 2.827-.602 4.362-.998 5.385-.526 1.354-1.154 2.32-2.17 3.333-1.015 1.016-1.98 1.644-3.334 2.17-1.022.398-2.557.87-5.385 1-3.058.138-3.974.168-11.718.168-7.743 0-8.66-.03-11.719-.168-2.828-.13-4.363-.602-5.384-1-1.355-.526-2.32-1.154-3.333-2.17-1.017-1.013-1.646-1.979-2.17-3.333-.398-1.023-.87-2.558-1-5.385-.14-3.058-.169-3.975-.169-11.718 0-7.744.03-8.662.17-11.72.13-2.827.601-4.362.999-5.385.524-1.354 1.153-2.32 2.17-3.333 1.014-1.015 1.978-1.644 3.333-2.17 1.021-.397 2.556-.87 5.384-1 3.058-.139 3.976-.168 11.719-.168"/><path d="M50 60.737c-5.377 0-9.737-4.36-9.737-9.737 0-5.378 4.36-9.738 9.737-9.738 5.379 0 9.737 4.36 9.737 9.738 0 5.376-4.358 9.737-9.737 9.737M50 36c-8.284 0-15 6.714-15 15 0 8.285 6.716 15 15 15 8.285 0 15-6.715 15-15 0-8.286-6.715-15-15-15"/></g></g></svg>