<svg width="41" height="41" viewBox="0 0 41 41" fill="none" xmlns="http://www.w3.org/2000/svg"><path d="M31.19 0a9.747 9.747 0 00-6.937 2.874l-7.64 7.64c.584-.082 1.167-.17 1.764-.17 1.646 0 3.258.32 4.74.912l4.76-4.758a4.659 4.659 0 013.313-1.373 4.691 4.691 0 014.685 4.686 4.659 4.659 0 01-1.372 3.313l-8.566 8.566c-1.772 1.77-4.855 1.77-6.627.001l-3.62 3.626a9.747 9.747 0 006.934 2.87 9.747 9.747 0 006.937-2.873l8.565-8.566A9.747 9.747 0 0041 9.81C41 4.4 36.6 0 31.19 0z" fill="#000"/><path d="M17.838 29.789l-4.714 4.713a4.659 4.659 0 01-3.313 1.373 4.691 4.691 0 01-4.686-4.686c0-1.251.488-2.427 1.373-3.313l8.566-8.566c1.771-1.77 4.854-1.77 6.626-.001l3.621-3.626c-3.705-3.701-10.165-3.703-13.871.004l-8.566 8.565A9.746 9.746 0 000 31.19C0 36.6 4.4 41 9.81 41a9.747 9.747 0 006.938-2.873l7.538-7.538c-.55.073-1.098.162-1.663.162-1.67 0-3.29-.334-4.785-.961z" fill="#000"/></svg>