<svg width="50" height="50" viewBox="0 0 50 50" xmlns="http://www.w3.org/2000/svg"><g fill="#000" fill-rule="evenodd"><path d="M25 3C12.85 3 3 12.85 3 25s9.85 22 22 22 22-9.85 22-22S37.15 3 25 3zm0-3C11.193 0 0 11.193 0 25s11.193 25 25 25c13.806 0 25-11.193 25-25S38.806 0 25 0z"/><path d="M25.011 11a9.043 9.043 0 0 0-6.384 2.634A8.917 8.917 0 0 0 16 19.984c0 .233 0 .475.036.726 0 .17.036.34.059.51v.156c.031.18.058.358.094.533 1.379 6.854 8.822 17.727 8.822 17.727s7.444-10.873 8.8-17.727c.036-.175.063-.354.094-.533v-.156c.023-.17.045-.34.059-.51 0-.251.036-.493.036-.725a8.917 8.917 0 0 0-2.619-6.343A9.043 9.043 0 0 0 25.011 11zm0 13.195a4.24 4.24 0 0 1-3.93-2.587 4.19 4.19 0 0 1 .908-4.594 4.261 4.261 0 0 1 4.623-.921 4.21 4.21 0 0 1 2.621 3.892A4.187 4.187 0 0 1 28 22.958a4.246 4.246 0 0 1-2.989 1.237z" fill-rule="nonzero"/></g></svg>