<svg width="40" height="40" viewBox="0 0 40 40" fill="none" xmlns="http://www.w3.org/2000/svg"><path d="M39.194 39.942H.612a.57.57 0 01-.57-.57V13.827a.583.583 0 01.1-.334.562.562 0 01.274-.214l6.139-2.42V.627a.57.57 0 01.57-.57h25.72a.57.57 0 01.57.57v10.234l5.873 2.39a.57.57 0 01.476.513.58.58 0 010 .127v25.48a.57.57 0 01-.57.57zm-38.012-1.14h37.442V14.936L20.316 27.939a.57.57 0 01-.66 0L1.182 14.819v23.983zm6.512-20.756l12.291 8.73 12.29-8.73V1.198H7.693v16.848zm25.72-5.954v5.146l4.607-3.271-4.606-1.875zM1.89 13.923l4.665 3.314v-5.154l-4.665 1.84zm6.6 23.08c-3.312 0-5.717-2.47-5.717-5.87 0-4.045 2.911-7.095 6.772-7.095 3.246 0 5.513 2.254 5.513 5.48 0 3.029-1.807 4.614-3.593 4.614a1.91 1.91 0 01-1.385-.571 1.754 1.754 0 01-.185-.23c-.462.417-1.156.8-2.152.8-1.195 0-2.404-.93-2.404-2.71a4.602 4.602 0 014.596-4.597c.398 0 1.034.098 1.105.109a.571.571 0 01.473.663l-.806 4.532c-.008.282.059.5.199.647a.768.768 0 00.559.217c1.22 0 2.454-1.193 2.454-3.474 0-2.556-1.799-4.34-4.374-4.34-3.698 0-5.632 2.994-5.632 5.954 0 3.106 2.303 4.73 4.578 4.73 1.103 0 1.954-.189 2.759-.613a.57.57 0 01.531 1.008c-.978.517-1.993.746-3.29.746zm1.445-9.039c-2.136 0-3.457 1.795-3.457 3.457 0 .925.52 1.571 1.265 1.571a2.026 2.026 0 001.848-1.097l.695-3.909a3.986 3.986 0 00-.351-.022zm18.841-10.976H12.496a.57.57 0 110-1.14h16.28a.57.57 0 110 1.14zm0-5.046H12.496a.57.57 0 110-1.14h16.28a.57.57 0 110 1.14zm0-5.21H12.496a.57.57 0 110-1.139h16.28a.57.57 0 110 1.14z" fill="#1C6AA3"/></svg>