<svg height="44" viewBox="0 0 48 44" width="48" xmlns="http://www.w3.org/2000/svg"><g><path d="m16.2764094 22.2042205c.0314961-.5130079.0629922-1.0267717.1302678-1.5457008.1243464-1.2303622.391559-2.4657638.6645669-3.6675276.1661732-.599433.3462047-1.191559.5350551-1.7704567.2415118-.5650393.4778583-1.1270551.7135748-1.6759685.5335433-1.071496 1.1300788-2.0726929 1.8421417-2.9107401.1690709-.215937.33663-.4251969.5006615-.63521263.1873385-.18733858.3748031-.36888189.5554645-.55042519.3813544-.34469292.712063-.71798426 1.0927874-.99174804.7588032-.56201574 1.4301733-1.09631496 2.1136378-1.4271496.6587717-.36749606 1.2236851-.68648819 1.7330394-.86651969.9982992-.40176378 1.5648504-.60371653 1.5648504-.60371653s-.4831496.38349606-1.3276221 1.0056063c-.4362834.28472441-.8987716.73411023-1.4491968 1.19445669-.5738583.43905512-1.0934173 1.06847244-1.7111181 1.67168504-.3089134.30815748-.5487874.69530705-.8409449 1.05171655-.1419842.1815433-.287622.3644724-.4377953.5504252-.1214488.2049764-.2473071.4105827-.3746771.6205984-.5452599.808063-.9528189 1.7565984-1.3775118 2.7189921-.1742363.5035591-.3504882 1.0144252-.5306457 1.5303307-.1229606.536441-.2590236 1.0786772-.4075591 1.6188977-.2232441 1.1101732-.4420787 2.2425197-.5365669 3.4068661-.0657638.4222992-.0972598.848252-.1368189 1.2771024 9.2517795.0015118 16.4124724.0073071 26.432126.0073071.0336378-.4391811.0526614-.8841575.0526614-1.3312756 0-8.4385512-6.1494173-15.38859845-14.0624882-16.30929136.5108662-.47785827.8343937-1.15565354.8343937-1.90954331.0028977-1.44907086-1.1710236-2.6216063-2.6171968-2.6216063-1.4476851 0-2.6229922 1.17253544-2.6229922 2.6216063 0 .75540158.3220158 1.43155906.8342678 1.90954331-7.912441.92069291-14.0602205 7.87074016-14.0602205 16.30929136 0 .4457323.016.8847874.0490079 1.3225827.9771338-.000126 1.9205039-.000126 2.8448503-.000126z"/><path d="m10.498142 23.180472h37.466709v3.305323h-37.466709z"/><path d="m32.5834331 28.832126c-1.904252.9251023-8.544 3.319811-8.544 3.319811l-7.8486929-.4917165s4.4894488-1.2486299 6.2297952-1.6394331c1.7433701-.3894173.9850709-2.3551496.0211654-2.3551496-.9637795 0-9.3636536.3468346-9.3636536.3468346l-5.57770074 2.008315 1.47615748 9.3432441s1.14834646-1.9658583 2.29379526-1.9658583c1.1497323 0 11.1085354.2649449 12.4603465 0 1.3525669-.2679685 9.5906771-5.903496 10.5772598-6.5607559.9821732-.6542362.1872126-2.9317795-1.7244724-2.0052913z"/><path d="m0 31.0250079v12.1112441l8.54551181-1.6-2.13782677-11.6385512z"/></g></svg>