<svg width="100" height="100" viewBox="0 0 100 100" xmlns="http://www.w3.org/2000/svg"><g fill="none" fill-rule="evenodd"><path d="M100 50c0 27.614-22.386 50-49.999 50C22.386 100 0 77.615 0 50S22.386 0 50.001 0C77.614 0 100 22.386 100 50" fill="#FFF"/><path d="M21 68.669A33.576 33.576 0 0039.187 74c22.03 0 34.474-18.607 33.725-35.295a24.058 24.058 0 005.92-6.143 23.66 23.66 0 01-6.814 1.869 11.874 11.874 0 005.215-6.564 23.763 23.763 0 01-7.533 2.881A11.846 11.846 0 0061.039 27c-7.659 0-13.288 7.147-11.557 14.57-9.863-.494-18.604-5.22-24.455-12.399-3.108 5.334-1.612 12.313 3.673 15.843a11.814 11.814 0 01-5.377-1.486c-.127 5.499 3.81 10.64 9.517 11.785a11.87 11.87 0 01-5.356.202 11.865 11.865 0 0011.081 8.24C33.577 67.667 27.295 69.412 21 68.67" fill="#00AEEF"/></g></svg>