<svg viewBox="0 0 548 171" xmlns="http://www.w3.org/2000/svg"><g fill="none" fill-rule="evenodd"><path d="M202.45 154.2v11.19l1.72.33v.17h-4.65v-.17l1.12-.33v-11.12l-1.12-.26v-.15h4.85c2.71 0 4.61 1.29 4.61 3.44s-1.89 3.44-4.61 3.44h-1.39l-.22-.22v-.12h1.39a3.1 3.1 0 000-6.19l-1.7-.01zM211.11 157.86l-1-.22v-.18l2.6-.28.22.24-.05 1.51.05.05a3.05 3.05 0 012.51-1.75 1.87 1.87 0 012 1.86 1 1 0 01-1 1.15 1.06 1.06 0 01-1.1-1.15v-1.37a.44.44 0 00-.27-.07c-1.36 0-2.08 2-2.08 2v5.79l1.55.33v.17h-4.36v-.17l1-.33-.07-7.58zM222.57 157.22a4.37 4.37 0 11-4.35 4.38 4.12 4.12 0 014.35-4.38zm0 8.49c1.5 0 2.51-1.41 2.51-4.11s-1-4.12-2.51-4.12c-1.51 0-2.51 1.41-2.51 4.12s1.04 4.11 2.51 4.11zM228.01 157.79l-1-.33v-.17h3.92v.17l-1 .33 2.82 6.24 2.78-6.24-1.43-.33v-.17h2.91v.17l-1.1.33-3.64 8.1h-.5zM237.52 165.71l1-.33v-7.52l-1-.22v-.18l2.6-.28.22.24v8l1 .33v.17h-3.82v-.21zm1.8-12a1.22 1.22 0 110 2.44 1.22 1.22 0 010-2.44zM251.34 165.54v.19l-2.58.21-.22-.22.05-.86-.05-.05a3.8 3.8 0 01-2.82 1.17c-2.32 0-3.4-1.72-3.4-4.18 0-2.92 1.56-4.57 4.21-4.57a4.41 4.41 0 012 .46v-3.61l-1-.22v-.19l2.58-.27.22.24v11.69l1.01.21zm-2.8-7.61a3.8 3.8 0 00-1.7-.45c-1.72 0-2.68 1.48-2.68 4 0 2.3.95 3.87 2.42 3.87a2.55 2.55 0 002-1l-.04-6.42zM252.02 165.71l1-.33v-7.52l-1-.22v-.18l2.6-.28.22.24v8l1 .33v.17h-3.82v-.21zm1.8-12a1.22 1.22 0 110 2.44 1.22 1.22 0 010-2.44zM259.35 165.38l.91.33v.17h-3.74v-.17l1-.33v-7.52l-1-.22v-.18l2.6-.28.22.24-.05 1 .05.05a5.13 5.13 0 013.37-1.29c1.82 0 2.61 1.19 2.61 3v5.21l1 .33v.17h-3.73v-.17l.91-.33v-4.93c0-1.49-.48-2.65-1.77-2.65a3.54 3.54 0 00-2.42 1.07l.04 6.5zM273.52 157.82a2.52 2.52 0 011.29 2.24c0 1.7-1.48 2.77-3.61 2.77a4.44 4.44 0 01-2.24-.52 1.83 1.83 0 00-.44 1.15c0 .64.43.95 1.36.95h2.9c1.93 0 2.75.77 2.75 2.11 0 1.79-1.58 2.82-4.76 2.82-2.18 0-3.52-.5-3.52-1.53 0-.76.69-1.37 1.58-1.89a1.53 1.53 0 01-1.2-1.63 2.88 2.88 0 011.17-2.13 2.47 2.47 0 01-1.15-2.13c0-1.72 1.48-2.8 3.59-2.8h4.28v.23l-1.17.36h-.83zm-4.21 8.22a2 2 0 00-.67 1.44c0 1.22.95 1.6 2.46 1.6 2 0 3.3-.67 3.3-1.82 0-.64-.4-1.19-1.48-1.19h-3.09a4.51 4.51 0 01-.47-.03h-.05zm1.89-3.47c1.12 0 1.91-.86 1.91-2.53s-.79-2.53-1.91-2.53c-1.12 0-1.89.86-1.89 2.53s.84 2.53 1.94 2.53h-.05zM285.92 153.85c3.44 0 5.84 2.27 5.84 6s-2.41 6-5.84 6h-5.48v-.14l1.08-.25v-11.19l-1.12-.26v-.15l5.52-.01zm-2.51.34v11.34h2.51c2.27 0 3.9-1.87 3.9-5.66s-1.63-5.69-3.9-5.69l-2.51.01zM293.8 157.79l-1-.33v-.17h3.92v.17l-1 .33 2.82 6.24 2.78-6.24-1.43-.33v-.17h2.9v.17l-1.1.33-3.65 8.1c-1 2.29-1.72 3.47-2.9 3.47a1.35 1.35 0 01-1.51-1.25.84.84 0 01.88-.94.88.88 0 01.93.94v.69a.39.39 0 00.19.05c.67 0 1.31-1.27 2-2.8l-3.83-8.26zM306.08 165.38l.91.33v.17h-3.73v-.17l1-.33v-7.52l-1-.22v-.18l2.6-.28.22.24-.05 1 .05.05a5.13 5.13 0 013.37-1.29c1.82 0 2.61 1.19 2.61 3v5.21l1 .33v.17h-3.73v-.17l.91-.33v-4.93c0-1.49-.48-2.65-1.77-2.65a3.54 3.54 0 00-2.42 1.07l.03 6.5zM319.66 164.8a4.49 4.49 0 01-3.07 1.19c-1.6 0-2.32-.79-2.32-2 0-2 2-2.3 5.39-2.85v-1.62a1.77 1.77 0 00-1.79-2c-.454 0-.898.14-1.27.4v1.39a1 1 0 01-1 1.13 1 1 0 01-1-1.08c0-1.36 1.67-2.11 3.38-2.11 2.3 0 3.54 1.13 3.54 2.61v5.24c0 .33.14.43.41.43a.87.87 0 00.57-.19l.12.12a2.19 2.19 0 01-1.56.46c-.72 0-1.19-.26-1.27-1.06l-.13-.06zm0-3.4c-2.42.38-3.57.52-3.57 2.37 0 1.07.55 1.62 1.43 1.62a3 3 0 002.15-1l-.01-2.99zM325.96 165.38l.88.33v.17h-3.7v-.17l1-.33v-7.52l-1-.22v-.18l2.59-.28.22.24-.05 1 .05.05a4.37 4.37 0 013-1.29 2.05 2.05 0 012.08 1.34 4.93 4.93 0 013.26-1.34c1.69 0 2.37 1.17 2.37 3v5.21l1 .33v.17h-3.64v-.17l.88-.33v-4.93c0-1.51-.4-2.65-1.56-2.65a3.12 3.12 0 00-2.2 1c.127.429.19.873.19 1.32v5.21l.88.33v.17h-3.54v-.17l.88-.33v-4.88c0-1.49-.4-2.65-1.5-2.65a2.77 2.77 0 00-2.08 1.12l-.01 6.45zM338.38 165.71l1-.33v-7.52l-1-.22v-.18l2.6-.28.22.24v8l1 .33v.17h-3.85l.03-.21zm1.81-12a1.22 1.22 0 110 2.44 1.22 1.22 0 010-2.44zM349.09 157.93a2.65 2.65 0 00-1.46-.45c-1.63 0-2.56 1.51-2.56 3.85 0 2.54 1 4.12 3.2 4.12a3.4 3.4 0 002.53-1l.19.21a4.55 4.55 0 01-3.42 1.34c-2.9 0-4.33-1.77-4.33-4.35 0-2.58 1.55-4.4 4.36-4.4 1.81 0 3.63.77 3.63 2.22a1 1 0 01-1.07 1.1 1 1 0 01-1.07-1.13v-1.51zM370.34 165.38l1.06.33v.17h-4v-.17l1.12-.33-.72-10-4.42 10.45h-.56l-4.51-10.37-.74 10 1 .33v.14h-2.53v-.14l1.12-.33.81-11.07-1.12-.33v-.17h2.67l4.3 10.14 4.26-10.14h2.53v.17l-1.07.33zM374.18 161.59c0 2.41 1.1 3.85 3.33 3.85a3.35 3.35 0 002.53-1l.19.21a4.63 4.63 0 01-3.45 1.34c-3 0-4.44-1.86-4.44-4.28a4.17 4.17 0 014.31-4.47c2.24 0 3.85 1.41 3.85 3.45a2.48 2.48 0 01-.08.69l-.24.22-6-.01zm0-.26l4.57-.26c0-2.39-.75-3.59-2-3.59s-2.5 1.19-2.57 3.85zM387.52 164.8a4.51 4.51 0 01-3.08 1.19c-1.6 0-2.32-.79-2.32-2 0-2 2-2.3 5.4-2.85v-1.62a1.77 1.77 0 00-1.79-2c-.454 0-.898.14-1.27.4v1.39a1 1 0 01-1 1.13 1 1 0 01-1-1.08c0-1.36 1.66-2.11 3.38-2.11 2.3 0 3.54 1.13 3.54 2.61v5.24c0 .33.14.43.41.43a.87.87 0 00.57-.19l.12.12a2.18 2.18 0 01-1.56.46c-.72 0-1.19-.26-1.27-1.06l-.13-.06zm0-3.4c-2.42.38-3.58.52-3.58 2.37 0 1.07.55 1.62 1.43 1.62a3.06 3.06 0 002.15-1v-2.99zM391.52 163.68h.36a2.36 2.36 0 002.53 2c1.32 0 2.22-.65 2.22-1.74 0-1.09-.86-1.31-2.2-1.65-1.34-.34-2.85-.76-2.85-2.6 0-1.44.88-2.51 3-2.51a4.77 4.77 0 012.2.52l.36-.29.17.17v1.88h-.34a2.24 2.24 0 00-2.32-2c-1.19 0-1.91.67-1.91 1.6s.77 1.24 1.93 1.56c1.51.46 3.13.93 3.13 2.8 0 1.46-1 2.53-3.39 2.53a5 5 0 01-2.39-.53l-.36.29-.17-.17.03-1.86zM408.63 165.54v.19l-2.59.21-.22-.22.05-1-.05-.05a4.63 4.63 0 01-3.21 1.29 2.49 2.49 0 01-2.71-2.72v-5.4l-1-.22v-.16l2.59-.28.23.24v5.55c0 1.39.5 2.42 1.79 2.42a3.31 3.31 0 002.35-1.08v-6.45l-1-.22v-.18l2.58-.28.24.24v7.91l.95.21zM410.32 157.86l-1-.22v-.18l2.59-.28.22.24-.05 1.51.05.05a3.06 3.06 0 012.51-1.75 1.87 1.87 0 012 1.86 1 1 0 01-1 1.15 1.06 1.06 0 01-1.1-1.15v-1.37a.45.45 0 00-.28-.07c-1.36 0-2.08 2-2.08 2v5.79l1.55.33v.17h-4.37v-.17l1-.33-.04-7.58zM419.28 161.59c0 2.41 1.1 3.85 3.33 3.85a3.36 3.36 0 002.53-1l.19.21a4.63 4.63 0 01-3.45 1.34c-3 0-4.44-1.86-4.44-4.28a4.18 4.18 0 014.31-4.47c2.24 0 3.85 1.41 3.85 3.45a2.41 2.41 0 01-.09.69l-.24.22-5.99-.01zm0-.26l4.57-.26c0-2.39-.76-3.59-2-3.59s-2.5 1.19-2.57 3.85zM429.52 165.38l.88.33v.17h-3.69v-.17l1-.33v-7.52l-1-.22v-.18l2.6-.28.22.24-.05 1 .05.05a4.36 4.36 0 013-1.29 2.05 2.05 0 012.08 1.34 4.93 4.93 0 013.27-1.34c1.68 0 2.37 1.17 2.37 3v5.21l1 .33v.17h-3.7v-.17l.88-.33v-4.93c0-1.51-.4-2.65-1.56-2.65a3.14 3.14 0 00-2.2 1c.128.428.192.873.19 1.32v5.21l.88.33v.17h-3.54v-.17l.88-.33v-4.88c0-1.49-.39-2.65-1.5-2.65a2.76 2.76 0 00-2.08 1.12l.02 6.45zM443.86 161.59c0 2.41 1.1 3.85 3.33 3.85a3.36 3.36 0 002.53-1l.19.21a4.63 4.63 0 01-3.45 1.34c-3 0-4.44-1.86-4.44-4.28a4.18 4.18 0 014.32-4.47c2.23 0 3.85 1.41 3.85 3.45a2.45 2.45 0 01-.09.69l-.24.22-6-.01zm0-.26l4.57-.26c0-2.39-.76-3.59-2-3.59s-2.5 1.19-2.57 3.85zM454.09 165.38l.91.33v.17h-3.73v-.17l1-.33v-7.52l-1-.22v-.18l2.59-.28.22.24-.05 1 .05.05a5.14 5.14 0 013.37-1.29c1.82 0 2.61 1.19 2.61 3v5.21l1 .33v.17h-3.73v-.17l.91-.33v-4.93c0-1.49-.48-2.65-1.77-2.65a3.54 3.54 0 00-2.42 1.07l.04 6.5zM461.37 157.46a4.08 4.08 0 002.61-2.18l.22.22v1.75h2.82v.34h-2.82v6c0 1.07.46 1.77 1.43 1.77a1.94 1.94 0 001.37-.6l.19.19a3.12 3.12 0 01-2.34.94 2.18 2.18 0 01-2.44-2.3v-6h-1l-.04-.13zM472.36 163.08h.31a3.35 3.35 0 003.54 2.65c1.89 0 3-1 3-2.61 0-1.61-1.1-2-3-2.51-1.9-.51-3.85-1.1-3.85-3.45 0-1.89 1.22-3.4 4-3.4a5.1 5.1 0 012.89.81l.72-.5.17.17v2.44h-.31a3.13 3.13 0 00-3.21-2.66 2.46 2.46 0 00-2.75 2.42c0 1.5 1.14 1.84 2.82 2.35 2 .64 4 1.32 4 3.71 0 2-1.31 3.49-4.33 3.49a5.8 5.8 0 01-3.11-.81l-.74.52-.17-.17.02-2.45zM486.52 157.22a4.37 4.37 0 11-4.35 4.38 4.12 4.12 0 014.35-4.38zm0 8.49c1.5 0 2.51-1.41 2.51-4.11s-1-4.12-2.51-4.12c-1.51 0-2.51 1.41-2.51 4.12s1.07 4.11 2.51 4.11zM491.9 165.71l1-.33v-11.3l-1-.22v-.19l2.59-.27.22.24v11.76l1 .33v.17h-3.85zM506.18 165.54v.19l-2.6.21-.22-.22.05-1-.05-.05a4.62 4.62 0 01-3.21 1.29 2.49 2.49 0 01-2.72-2.72v-5.4l-1-.22v-.16l2.6-.28.22.24v5.55c0 1.39.5 2.42 1.79 2.42a3.3 3.3 0 002.35-1.08v-6.45l-1-.22v-.18l2.58-.28.24.24v7.91l.97.21zM506.82 157.46a4.08 4.08 0 002.61-2.18l.22.22v1.75h2.87v.34h-2.82v6c0 1.07.46 1.77 1.43 1.77a2 2 0 001.38-.6l.19.19a3.11 3.11 0 01-2.33.94 2.18 2.18 0 01-2.44-2.3v-6h-1l-.11-.13zM513.45 165.71l1-.33v-7.52l-1-.22v-.18l2.59-.28.22.24v8l1 .33v.17h-3.85l.04-.21zm1.8-12a1.22 1.22 0 110 2.44 1.22 1.22 0 010-2.44zM522.64 157.22a4.37 4.37 0 11-4.35 4.38 4.12 4.12 0 014.35-4.38zm0 8.49c1.49 0 2.51-1.41 2.51-4.11s-1-4.12-2.51-4.12c-1.51 0-2.51 1.41-2.51 4.12s1.03 4.11 2.51 4.11zM530.8 165.38l.91.33v.17h-3.73v-.17l1-.33v-7.52l-1-.22v-.18l2.59-.28.22.24-.05 1 .05.05a5.13 5.13 0 013.37-1.29c1.82 0 2.61 1.19 2.61 3v5.21l1 .33v.17h-3.73v-.17l.91-.33v-4.93c0-1.49-.48-2.65-1.77-2.65a3.53 3.53 0 00-2.42 1.07l.04 6.5zM538.98 163.68h.36a2.36 2.36 0 002.53 2c1.32 0 2.22-.65 2.22-1.74 0-1.09-.86-1.31-2.2-1.65-1.34-.34-2.85-.76-2.85-2.6 0-1.44.88-2.51 3-2.51a4.77 4.77 0 012.2.52l.36-.29.17.17v1.88h-.25a2.24 2.24 0 00-2.32-2c-1.18 0-1.91.67-1.91 1.6s.77 1.24 1.92 1.56c1.51.46 3.13.93 3.13 2.8 0 1.46-1 2.53-3.38 2.53a5 5 0 01-2.44-.49l-.36.29-.17-.17-.01-1.9zM36.06 5.46l-12-3.57V0h45.25v1.88l-12.4 3.58 44.71 105.37 18.23-43.61h4.13l-27.46 64.24h-6.2z" fill="#02334E" fill-rule="nonzero"/><path fill="#02334E" fill-rule="nonzero" d="M127.92 128.67l5.06 1.78v.93h-19v-.92l5.3-1.78V53.59l-5.3-1.78v-.93h19v.93l-5.06 1.78z"/><path d="M0 139.46s171.74 51.81 185.66-32c7.86-47.17-34.94-78.9-78.9-91.76C72.01 5.53 24.04 4.46 13.52 38.46c-17.67 57 89.8 94.12 121.41 60.4a37.39 37.39 0 008.33-15.6s-5.56 11.89-13.39 17.39c-13.49 9.5-57.45 6-87-12.63C17.15 71.79 5.82 40.86 28.6 21.61c11.41-9.64 52.15-13.89 104.37 16 47.31 27.09 52.61 50.59 50.8 62.18-8.89 56.67-100.31 54.94-146.72 43.15C29.24 140.95 0 139.46 0 139.46z" fill="#569BBE" fill-rule="nonzero"/><circle fill="#02334E" fill-rule="nonzero" transform="rotate(-9.94 19.475 37.63)" cx="19.475" cy="37.63" r="13.24"/><path fill="#02334E" fill-rule="nonzero" d="M38.7 11.58l19.1-4.02 5.09 11.98-18.91 4.3zM180.3 18.89l-6.26-1.86v-1h23.58v1l-6.46 1.86 23.29 54.89 23.07-54.89-8.61-1.86v-1h17.42v1l-6.65 1.86-27.89 65.65h-3.23zM261.73 35.23c14.58 0 24.66 9.78 24.66 24.95s-10.08 24.85-24.66 24.85-24.75-9.57-24.75-24.86 10.08-24.94 24.75-24.94zm0 48.33c8.51 0 14.29-8 14.29-23.38 0-15.38-5.77-23.48-14.29-23.48s-14.28 8-14.28 23.48 5.87 23.38 14.28 23.38zM293.65 38.46l-5.77-1.86v-1h22.31v1l-6 1.86 16 35.52 15.92-35.52-8.12-1.86v-1h16.53v1l-6.26 1.86-20.74 46.08c-5.87 13-9.79 19.76-16.54 19.76-3.33 0-8.61-1.56-8.61-7.14 0-3.52 2.05-5.38 5-5.38a5 5 0 015.28 5.38v3.91c.33.188.701.288 1.08.29 3.82 0 7.44-7.24 11.25-15.95l-21.33-46.95zM376.35 78.37a25.68 25.68 0 01-17.51 6.75c-9.1 0-13.21-4.5-13.21-11.35 0-11.45 11.54-13.11 30.72-16.24v-9.2c0-6.75-3.62-11.45-10.17-11.45a12.6 12.6 0 00-7.24 2.25v7.93c0 4-2.54 6.46-6 6.46s-5.87-2.15-5.87-6.17c0-7.73 9.49-12 19.27-12 13.18-.03 20.18 6.43 20.18 14.85v29.84c0 1.86.78 2.45 2.35 2.45a5 5 0 003.23-1.08l.68.68c-1.86 1.86-5 2.64-8.9 2.64-4.11 0-6.75-1.47-7.24-6.06l-.29-.3zm0-19.37C362.55 61.15 356 61.94 356 72.5c0 6.07 3.13 9.2 8.12 9.2a17.39 17.39 0 0012.23-5.58V59zM434.39 38.65a14.32 14.32 0 017.34 12.72c0 9.69-8.41 15.75-20.55 15.75-5 0-9.39-1-12.72-2.94a10.4 10.4 0 00-2.74 6.75c0 3.62 2.45 5.38 7.73 5.38h16.53c11 0 15.66 4.4 15.66 12 0 10.18-9 16-27.1 16-12.42 0-20.06-2.84-20.06-8.71 0-4.31 3.91-7.83 9-10.76-4.5-1.27-6.85-4.3-6.85-9.29 0-4.7 2.25-7.83 6.65-12.13a14 14 0 01-6.56-12.13c0-9.78 8.41-15.95 20.45-15.95 1.17 0 2.35.1 3.52.19h20.55v1l-6.65 2.06-4.2.06zm-23.97 46.81c-3.13 3.52-3.81 5.77-3.81 8.22 0 6.95 5.38 9.1 14 9.1 11.45 0 18.79-3.82 18.79-10.37 0-3.62-2.25-6.75-8.42-6.75h-17.63a26.09 26.09 0 01-2.93-.2zm10.76-19.76c6.36 0 10.86-4.89 10.86-14.38 0-9.49-4.52-14.43-10.86-14.43s-10.76 4.89-10.76 14.38c0 9.49 4.5 14.38 10.76 14.38v.05zM461.98 60.08c0 13.7 6.26 21.92 19 21.92a19.11 19.11 0 0014.38-5.77l1.08 1.17c-4.79 4.79-11.06 7.63-19.67 7.63-17 0-25.24-10.57-25.24-24.36 0-15.56 10.37-25.44 24.56-25.44 12.72 0 21.92 8 21.92 19.67a13.84 13.84 0 01-.49 3.92l-1.37 1.27-34.17-.01zm0-1.47l26-1.47c0-13.6-4.3-20.45-11.55-20.45-7.02 0-14.06 6.77-14.45 21.92zM510.01 38.85l-5.87-1.27v-1.12l14.77-1.57 1.27 1.37-.29 8.61.29.29s4.6-10 14.29-10c6.26 0 11.35 4.21 11.35 10.57 0 4.6-2.64 6.55-6 6.55-3.72 0-6.26-2.54-6.26-6.55v-7.77a2.49 2.49 0 00-1.56-.39c-7.73 0-11.84 11.16-11.84 11.16v33l8.8 1.86v1h-24.82v-1l5.87-1.86V38.85z"/><path d="M200.26 96.25h88.06" stroke="#569BBE" stroke-width="2.15"/><path d="M317.1 96.25h76.91" stroke="#569BBE" stroke-width="1.9"/><path d="M449.15 96.25h96.33" stroke="#569BBE" stroke-width="2.41"/><path fill="#569BBE" fill-rule="nonzero" d="M207.65 144.17l3.07.94v.59H198.1v-.59l3.22-.94v-31.52l-3.22-1v-.59h12.62v.59l-3.07 1zM215.82 144.27v-31.62l-3.22-1v-.59h9.85l18.66 25.83v-24.43l-3.22-.94v-.49h7.52v.49l-3.22.94v33.2h-1.78l-23.5-32.51v31.08l3.22.94v.49h-7.52v-.49zM248.81 137.46h.89c1.68 6.63 7.08 7.82 10.34 7.82 5.2 0 8.31-2.72 8.31-7.23s-3-5.39-8.31-7c-5.69-1.68-11.18-3.27-11.18-10.24 0-5.59 3.56-10 11.68-10a15.3 15.3 0 018.31 2.23l2.28-1.44.49.5v7.27h-.89c-1.63-6.53-6.48-7.82-9.45-7.82-4.6 0-7.37 2.82-7.37 6.68 0 4.11 3 5 7.72 6.53 6.09 2 11.78 4 11.78 10.94 0 5.84-3.81 10.34-12.82 10.34a17.18 17.18 0 01-9-2.23l-2.33 1.48-.49-.5.04-7.33zM294.83 112.15v32l3.22.94v.59h-12.87v-.59l3.22-.94v-32h-8.71l-2.52 5.25h-.84v-6.34h30.63v6.33h-.84l-2.6-5.24zM328.62 129.46c1.68.54 2.72 2 3.61 3.61l6.23 11.23 3 .84v.59h-8.81l-8.76-16h-4.97v14.45l3.22.94v.59h-12.87v-.59l3.22-.94v-31.83l-3.22-.79v-.49h15.44c7.52 0 12.67 3.51 12.67 9.4 0 4.79-3.32 8.11-8.76 8.99zm-9.7-17.27v16.48h5c4 0 6.88-2.57 6.88-8.21 0-5.64-2.87-8.26-6.88-8.26l-5-.01zM371.12 132.84c0 8.21-5.64 13.16-13.76 13.16-8.12 0-13.91-5-13.91-13.16v-20.19l-3.22-1v-.59h12.87v.59l-3.22 1v20.19c0 7.27 4.26 10.89 9.9 10.89 6 0 10.24-4 10.24-10.89v-20.38l-3.22-.94v-.49h7.52v.49l-3.22.94.02 20.38zM417.73 144.17l3.07.94v.59h-12.72v-.59l3.22-.94-2-27.91-12.57 29.44h-1.88l-12.77-29.49-2 28.06 3.07.94v.49h-7.37v-.49l3.22-.94 2.23-31.62-3.22-1v-.59h8.51l12 28.16 11.93-28.16h8.07v.59l-3.07 1zM446.47 144.61l2.57-5.25h.84v6.33h-27.66v-.49l3.22-.79v-32.06l-3.22-.79v-.49h27.17v6.33h-.87l-2.57-5.25h-14.1v15.14h11.38l1.14-4.06h.79v9.15h-.79l-1.14-4h-11.36v16.23zM456.26 144.27v-31.62l-3.22-1v-.59h9.85l18.63 25.83v-24.43l-3.22-.94v-.49h7.52v.49l-3.22.94v33.2h-1.78l-23.5-32.51v31.08l3.22.94v.49h-7.52v-.49zM506.68 112.15v32l3.22.94v.59h-12.87v-.59l3.22-.94v-32h-8.73L489 117.4h-.84v-6.34h30.63v6.33h-.84l-2.57-5.25zM522.85 137.46h.89c1.68 6.63 7.08 7.82 10.34 7.82 5.2 0 8.31-2.72 8.31-7.23s-3-5.39-8.31-7c-5.69-1.68-11.18-3.27-11.18-10.24 0-5.59 3.56-10 11.68-10a15.3 15.3 0 018.31 2.23l2.28-1.44.5.5v7.27h-.89c-1.63-6.53-6.48-7.82-9.45-7.82-4.6 0-7.37 2.82-7.37 6.68 0 4.11 3 5 7.72 6.53 6.09 2 11.78 4 11.78 10.94 0 5.84-3.81 10.34-12.82 10.34a17.18 17.18 0 01-9-2.23l-2.33 1.48-.49-.5.03-7.33z"/></g></svg>